<svg version="1.1" id="Layer_1" xmlns="http://www.w3.org/2000/svg" xmlns:xlink="http://www.w3.org/1999/xlink" x="0px" y="0px"
	 width="100%" viewBox="0 0 500 390" enable-background="new 0 0 500 390" xml:space="preserve">
<path fill="#000000" opacity="1.000000" stroke="none" 
	d="
M305.000000,391.000000 
	C203.361725,391.000000 102.223457,391.000000 1.042593,391.000000 
	C1.042593,261.064911 1.042593,131.129776 1.042593,1.097325 
	C167.554947,1.097325 334.109985,1.097325 500.832520,1.097325 
	C500.832520,130.999832 500.832520,260.999908 500.832520,391.000000 
	C435.796387,391.000000 370.648193,391.000000 305.000000,391.000000 
M286.925995,45.433090 
	C286.634827,45.246212 286.343658,45.059334 285.989227,44.239700 
	C285.346100,43.478806 284.702942,42.717907 283.905396,41.443901 
	C283.613129,41.252117 283.320892,41.060333 283.001678,40.275124 
	C282.698181,39.842140 282.394714,39.409157 281.920593,38.489250 
	C281.638794,38.309566 281.357025,38.129883 280.924896,37.444717 
	C280.620453,37.353756 280.316010,37.262798 279.350677,36.875835 
	C277.145050,35.830421 275.010315,34.104774 272.720612,33.866093 
	C265.622528,33.126202 259.484314,35.031788 255.387375,42.159523 
	C254.990219,42.779285 254.593063,43.399044 254.025970,44.444962 
	C254.025970,44.444962 253.955612,44.898331 253.327103,45.168640 
	C251.204285,48.076736 249.081467,50.984837 246.338150,54.155945 
	C244.865234,56.086815 243.392303,58.017689 241.282288,60.212372 
	C239.167236,63.443172 237.052185,66.673973 234.383179,70.123428 
	C234.173080,70.461685 233.962997,70.799950 233.297775,71.244743 
	C233.297775,71.244743 233.108887,71.672318 232.592484,71.982513 
	C231.694809,73.266129 230.797150,74.549744 229.300598,76.174042 
	C226.592621,80.126709 223.884628,84.079384 220.778854,88.749077 
	C218.979599,95.384666 221.258408,101.499580 226.802536,104.912979 
	C232.521347,108.433922 239.541885,107.590797 245.539703,102.861015 
	C246.719131,101.260857 247.898560,99.660690 249.015076,98.027550 
	C249.015076,98.027550 249.029099,98.097176 249.539474,97.918648 
	C249.724197,97.620102 249.908905,97.321556 250.025726,97.018913 
	C250.025726,97.018913 250.041428,97.085068 250.657974,96.806740 
	C252.134384,94.882423 253.610794,92.958107 255.018173,91.024475 
	C255.018173,91.024475 255.017349,91.094131 255.528183,90.912109 
	C255.716736,90.614090 255.905289,90.316071 256.026276,90.015190 
	C256.026276,90.015190 256.044556,90.080315 256.645386,89.823105 
	C257.453186,88.578537 258.260956,87.333969 259.000214,86.005646 
	C259.000214,86.005646 259.055939,86.098732 259.763458,85.986404 
	C260.204956,85.338165 260.646484,84.689926 261.017426,84.008804 
	C261.017426,84.008804 261.059937,84.074020 261.689728,83.818794 
	C262.718658,82.182602 263.747620,80.546410 265.132294,78.318436 
	C266.408936,76.906944 267.685608,75.495461 269.038605,73.999550 
	C271.420380,76.336182 273.792450,78.663292 276.028748,81.691582 
	C279.648712,86.129303 283.268707,90.567017 287.184357,95.623100 
	C288.781158,97.463226 290.377930,99.303352 292.256683,101.748940 
	C295.701965,105.462410 299.665924,107.864143 305.774902,106.938309 
	C307.880554,105.969521 309.986206,105.000732 312.018860,104.025215 
	C312.018860,104.025215 312.014008,104.098358 312.533569,103.917030 
	C312.722504,103.613312 312.911438,103.309586 313.008972,103.007156 
	C313.008972,103.007156 313.010986,103.098526 313.759735,102.995949 
	C315.101776,99.968147 316.443817,96.940353 317.964417,93.202164 
	C317.922150,92.475533 317.879883,91.748901 317.765778,90.314041 
	C316.523743,88.171906 315.281708,86.029770 313.756866,83.257568 
	C311.202484,79.824211 308.648102,76.390854 306.057892,72.997459 
	C306.057892,72.997459 306.068787,72.946190 306.019012,72.335541 
	C305.719727,71.879814 305.420441,71.424088 304.825317,70.345161 
	C303.240784,68.207153 301.656250,66.069145 299.857880,63.388241 
	C299.513428,62.929569 299.168976,62.470894 298.852539,61.417465 
	C298.258026,60.917149 297.663513,60.416836 296.819641,59.308037 
	C295.895508,58.172352 294.971344,57.036663 293.900970,55.420437 
	C293.623291,55.247864 293.345642,55.075294 293.010681,54.292439 
	C292.696564,53.839378 292.382446,53.386318 291.861450,52.391972 
	C291.511597,51.940197 291.161743,51.488422 290.850281,50.434288 
	C290.247528,49.925312 289.644745,49.416336 288.972168,48.465836 
	C288.972168,48.465836 288.819427,48.045731 288.873169,47.449326 
	C288.273163,46.954216 287.673157,46.459103 287.039154,45.994987 
	C287.039154,45.994987 287.049622,45.951218 286.925995,45.433090 
M286.998840,298.671082 
	C287.313232,299.143463 287.627625,299.615875 288.004425,300.873535 
	C288.966797,303.597595 289.929169,306.321655 290.993713,309.734955 
	C291.316650,310.512421 291.639587,311.289856 292.042023,312.537781 
	C292.042023,312.537781 292.199402,312.988220 292.252808,313.686798 
	C293.818970,316.145966 295.385162,318.605103 297.037445,321.532257 
	C297.037445,321.532257 297.177826,321.986938 297.126923,322.583527 
	C297.730835,323.067749 298.334747,323.551971 299.105408,324.515045 
	C299.382996,324.692078 299.660583,324.869110 300.084137,325.556244 
	C300.375793,325.741272 300.667450,325.926270 301.016510,326.556641 
	C301.016510,326.556641 301.146332,326.986481 301.086365,327.573761 
	C301.670563,328.057404 302.254791,328.541016 303.123413,329.594910 
	C304.077148,330.416046 305.030884,331.237183 306.164307,332.618622 
	C306.780548,333.023010 307.396790,333.427399 308.416473,334.002838 
	C308.679504,334.132568 308.926636,334.287659 309.579407,335.032654 
	C316.431305,341.761505 324.710114,345.825897 334.364746,348.771667 
	C344.484711,351.196808 354.661255,351.897247 365.761536,349.947723 
	C371.869934,347.658813 377.978363,345.369873 384.016663,343.031219 
	C384.016663,343.031219 384.048706,343.111023 384.525238,342.952209 
	C384.675385,342.673889 384.825531,342.395599 385.689758,341.974213 
	C391.534424,337.053101 397.379120,332.131989 403.124603,327.156494 
	C403.124603,327.156494 403.080475,327.260712 403.667572,327.681396 
	C404.051910,327.121246 404.436249,326.561096 405.150330,325.392151 
	C411.720428,318.096130 415.732330,309.523651 417.982452,299.365784 
	C418.256317,298.576843 418.530182,297.787872 418.976624,296.244080 
	C422.081879,286.757874 425.187164,277.271698 428.862518,267.397675 
	C429.881805,264.656433 431.078156,261.965332 431.872223,259.160309 
	C432.722595,256.156311 433.194183,253.045059 434.163055,249.308868 
	C435.047241,246.536774 435.931427,243.764679 436.968079,240.210815 
	C437.924652,236.471786 438.881226,232.732758 440.161682,228.338882 
	C441.145050,225.905823 442.128387,223.472748 443.782227,220.746948 
	C445.468750,214.823669 447.155243,208.900375 449.158081,202.302551 
	C449.797485,200.217560 450.436859,198.132584 451.769867,195.796661 
	C453.453705,190.177917 455.137543,184.559174 456.986450,178.250427 
	C457.268158,177.163940 457.549835,176.077454 458.153809,174.302460 
	C459.709564,169.531387 461.265320,164.760315 463.166840,159.306824 
	C464.143311,155.881882 465.119751,152.456955 466.894653,149.009293 
	C468.542175,143.378784 470.189697,137.748276 471.962616,131.206192 
	C471.976746,124.851997 471.837036,118.530800 468.046906,112.957993 
	C468.046906,112.957993 468.014221,112.949203 467.897278,112.453743 
	C467.617188,112.280220 467.337128,112.106697 466.989471,111.198936 
	C464.744659,108.075851 463.158844,103.906075 460.143158,102.007484 
	C445.640930,92.877335 433.877350,90.352386 418.241241,99.427414 
	C412.992310,102.473839 408.897278,106.885628 406.297485,113.233131 
	C405.516327,115.789307 404.735138,118.345482 403.299164,121.263725 
	C399.925079,132.150833 396.551025,143.037933 392.876953,154.629349 
	C392.229645,157.047867 391.582367,159.466370 390.352325,162.148102 
	C390.288239,162.753235 390.224152,163.358353 390.023376,164.420181 
	C390.023376,164.420181 389.953094,164.891693 389.371887,165.148087 
	C389.227783,165.752899 389.083710,166.357712 389.000000,166.996338 
	C389.000000,166.996338 388.938934,166.958206 388.261261,167.316956 
	C387.495239,170.845215 386.729187,174.373489 385.310760,178.283539 
	C383.604065,183.522903 381.897369,188.762268 380.040100,194.769058 
	C378.424957,199.844131 376.809784,204.919205 374.861938,210.690155 
	C371.943237,219.748749 368.995819,228.798248 366.120850,237.870697 
	C365.060486,241.216736 364.170868,244.616867 363.058472,248.745422 
	C361.765259,252.496979 360.472046,256.248535 359.022705,260.763458 
	C358.315521,263.493896 357.608307,266.224304 356.244751,269.317535 
	C354.486938,273.594666 352.729126,277.871826 350.307281,281.764923 
	C349.475525,278.846954 348.643738,275.929016 347.705627,272.276001 
	C346.408936,268.853424 345.112213,265.430817 343.708923,261.279999 
	C342.492767,258.518005 341.276611,255.756012 340.059479,252.944794 
	C340.059479,252.944794 340.010559,252.939178 339.990967,252.154541 
	C337.939301,246.439316 335.887665,240.724106 333.985687,234.256516 
	C333.239227,232.303818 332.482971,230.354828 331.748047,228.397797 
	C328.456146,219.631714 325.170349,210.863358 321.767151,201.353043 
	C318.464386,192.578751 315.161652,183.804459 311.745758,174.296173 
	C309.129456,167.243515 306.513153,160.190872 303.923981,152.444321 
	C303.299652,151.592133 302.675323,150.739944 301.967834,149.441269 
	C301.967834,149.441269 301.826569,149.009674 301.958649,148.272705 
	C298.493347,139.678207 291.762115,134.505753 283.554993,131.033844 
	C275.956696,127.819519 268.051025,127.374718 259.308929,129.267746 
	C255.200317,131.824356 251.091721,134.380951 246.283432,137.034546 
	C241.192230,139.927750 238.894211,144.808945 236.571732,150.315369 
	C236.351868,151.218536 236.131989,152.121689 235.988068,153.499557 
	C235.988068,153.499557 235.941299,153.978043 235.443253,154.484558 
	C234.935181,155.678375 234.368027,156.850845 233.927963,158.069229 
	C227.930328,174.674515 221.950256,191.286163 215.398972,208.338409 
	C214.024567,212.236435 212.650162,216.134460 210.824997,220.627548 
	C205.838898,234.017105 200.852798,247.406662 195.224258,261.172089 
	C192.473450,268.509460 189.722626,275.846802 186.328323,282.753998 
	C185.585342,280.275238 184.880295,277.784393 184.092911,275.319824 
	C180.333817,263.553497 176.552399,251.794327 172.847549,239.545853 
	C172.709122,239.208939 172.459167,239.018097 172.008698,238.183182 
	C169.594406,230.468048 167.180115,222.752914 164.682907,214.297760 
	C160.368179,200.892654 156.053452,187.487564 151.862686,173.339783 
	C150.928345,170.885117 149.994003,168.430450 149.033966,165.191849 
	C147.545090,161.121689 146.056213,157.051514 144.789322,152.240173 
	C140.540924,139.456970 136.292511,126.673752 131.980286,113.179276 
	C126.624832,102.439987 118.082680,96.218048 105.576660,94.203392 
	C103.589859,94.155525 101.603188,94.072433 99.616234,94.065208 
	C78.276817,93.987587 60.959473,116.110870 68.979591,137.831009 
	C72.404114,148.215393 75.828636,158.599762 79.118820,169.773727 
	C82.157021,178.866379 85.195221,187.959015 88.109200,197.629242 
	C88.380768,198.098083 88.652344,198.566910 89.038017,199.825089 
	C93.411575,213.561432 97.785126,227.297791 101.981392,241.649536 
	C102.299721,242.120316 102.618042,242.591095 102.997162,243.005173 
	C102.997162,243.005173 102.934608,243.065735 103.032043,243.843033 
	C106.003632,252.911728 108.975227,261.980438 112.015030,271.832306 
	C113.650948,276.564178 115.286858,281.296051 116.981056,286.809204 
	C117.630363,288.940186 118.279671,291.071198 119.032219,293.956360 
	C121.526733,302.099884 123.706566,310.310486 127.941902,317.865082 
	C131.551666,324.303833 135.449188,330.277466 142.331314,334.683075 
	C148.220978,338.426422 154.110641,342.169769 160.791718,345.975220 
	C173.186752,350.732910 185.890976,352.363831 199.706802,349.633606 
	C200.827026,349.349365 201.947235,349.065155 203.870865,348.911011 
	C210.793686,345.903778 217.784363,343.038971 224.594299,339.794769 
	C226.425797,338.922211 227.707626,336.895905 229.277649,335.374237 
	C229.277649,335.374237 229.308929,335.343719 229.902802,335.598785 
	C230.296692,335.111420 230.690582,334.624084 231.144272,334.127838 
	C231.144272,334.127838 231.148483,334.067505 231.844925,334.023590 
	C232.513260,333.021454 233.181595,332.019348 234.085037,330.475677 
	C234.400467,329.986023 234.715881,329.496399 235.620743,328.729004 
	C237.297302,326.803802 238.973846,324.878571 241.416946,322.976196 
	C247.717880,316.239410 250.510696,307.961884 252.534851,298.672455 
	C256.028046,289.133575 259.521210,279.594696 263.724731,269.818848 
	C266.099030,264.191864 268.473328,258.564880 270.936188,253.740265 
	C272.595245,258.171600 274.254333,262.602936 276.009613,267.834412 
	C279.056122,276.572327 282.102661,285.310272 285.031464,294.718842 
	C285.664124,295.825562 286.296783,296.932312 286.976349,297.996918 
	C286.976349,297.996918 286.942261,298.044617 286.998840,298.671082 
z"/>
<path fill="#34D5CF" opacity="1.000000" stroke="none" 
	d="
M309.157867,334.468079 
	C308.926636,334.287659 308.679504,334.132568 308.124084,333.636841 
	C307.216003,332.866699 306.600311,332.462494 305.984619,332.058289 
	C305.030884,331.237183 304.077148,330.416046 302.958588,329.021240 
	C302.244629,327.960510 301.695465,327.473511 301.146332,326.986481 
	C301.146332,326.986481 301.016510,326.556641 300.856323,326.121704 
	C300.488678,325.419708 300.236023,325.206177 299.938171,325.046143 
	C299.660583,324.869110 299.382996,324.692078 298.974487,323.986084 
	C298.288300,322.967072 297.733063,322.477020 297.177826,321.986938 
	C297.177826,321.986938 297.037445,321.532257 296.950104,320.942200 
	C295.308319,317.897491 293.753845,315.442841 292.199402,312.988220 
	C292.199402,312.988220 292.042023,312.537781 291.999023,311.965851 
	C291.601166,310.611176 291.246338,309.828461 290.891541,309.045715 
	C289.929169,306.321655 288.966797,303.597595 287.937378,300.188232 
	C287.560944,299.016815 287.251617,298.530731 286.942261,298.044617 
	C286.942261,298.044617 286.976349,297.996918 286.970093,297.656891 
	C286.639038,296.205963 286.314301,295.095032 285.991730,293.653931 
	C286.002411,292.883636 286.010895,292.443481 286.380188,291.984314 
	C291.716522,289.504425 296.528107,286.322845 302.756165,288.700592 
	C304.172791,284.574860 307.088043,284.772156 310.477844,285.543671 
	C312.342651,285.968109 314.391174,285.600128 316.356445,285.564667 
	C318.651459,285.523224 320.945709,285.436035 323.240784,285.402588 
	C326.437347,285.355957 330.153442,286.258972 331.767822,282.394867 
	C333.711426,277.742767 341.669312,272.434662 346.837738,272.807922 
	C347.165649,272.831604 347.487366,272.941345 347.811951,273.011047 
	C348.643738,275.929016 349.475525,278.846954 350.701630,282.326477 
	C351.406006,284.006805 351.665680,285.142395 352.033722,286.241760 
	C356.280029,298.925568 361.039093,311.310577 371.912415,320.385620 
	C370.548920,321.651062 369.346130,323.201843 367.972260,323.372101 
	C359.583252,324.411591 351.158997,325.178162 342.736176,325.918427 
	C341.647247,326.014130 340.504120,325.408173 339.376526,325.172974 
	C338.267731,324.941681 337.033264,324.362579 336.049988,324.637451 
	C330.652832,326.146149 325.251373,327.690308 319.980347,329.581665 
	C316.266541,330.914246 312.758026,332.818878 309.157867,334.468079 
z"/>
<path fill="#6348BD" opacity="1.000000" stroke="none" 
	d="
M149.059677,165.975784 
	C149.994003,168.430450 150.928345,170.885117 151.633682,174.004135 
	C148.420578,179.403839 145.650742,184.190979 146.584244,190.171112 
	C146.661194,190.664062 145.915268,191.265289 145.600311,191.842728 
	C142.264755,197.958298 137.876236,203.768143 135.963562,210.302048 
	C134.558655,215.101273 133.505402,221.288742 137.671280,226.112457 
	C136.854279,227.043304 136.470367,227.947662 135.858917,228.655457 
	C132.119034,232.984406 130.943039,239.683258 123.726830,240.887985 
	C121.809669,241.208054 120.393318,243.992935 118.539413,245.365753 
	C116.353378,246.984528 114.033379,249.187714 111.596497,249.438705 
	C109.915466,249.611847 107.938492,246.899857 106.091713,245.479904 
	C105.041496,244.672394 103.987114,243.870270 102.934608,243.065735 
	C102.934608,243.065735 102.997162,243.005173 102.942612,242.755493 
	C102.644943,242.015259 102.401810,241.524704 102.158676,241.034134 
	C97.785126,227.297791 93.411575,213.561432 89.363907,199.577209 
	C98.102112,201.111954 101.686943,199.440872 106.749069,192.783493 
	C109.042068,189.767883 112.117218,186.291473 115.475250,185.384033 
	C120.752251,183.958038 124.479828,181.501694 128.005295,177.476791 
	C129.678802,175.566193 133.860687,174.043182 136.030899,174.812820 
	C139.079819,175.894058 140.932037,175.106308 142.656647,173.464188 
	C145.022644,171.211334 146.946411,168.494049 149.059677,165.975784 
z"/>
<path fill="#4D3497" opacity="1.000000" stroke="none" 
	d="
M195.866699,260.796234 
	C200.852798,247.406662 205.838898,234.017105 211.380478,220.400650 
	C214.070282,221.424591 216.139816,222.805923 218.350220,223.903534 
	C227.693130,228.542953 234.034409,235.497437 237.046173,245.745834 
	C240.649368,258.006805 244.316711,270.317352 249.119888,282.133392 
	C252.357773,290.098724 248.693680,295.761719 245.338348,301.781158 
	C243.616684,304.869781 241.165604,304.207275 238.957016,301.536957 
	C236.589111,298.673950 234.338089,294.942230 231.197495,293.685944 
	C227.278229,292.118225 224.976257,289.812714 222.831528,286.538788 
	C221.524261,284.543213 219.440094,283.030731 217.606979,281.412170 
	C215.417343,279.478851 213.051834,277.742035 210.896851,275.773071 
	C209.187210,274.210999 207.722290,272.384766 206.073898,270.751282 
	C202.698105,267.406097 199.272064,264.111603 195.866699,260.796234 
z"/>
<path fill="#7155C7" opacity="1.000000" stroke="none" 
	d="
M132.044098,113.890549 
	C136.292511,126.673752 140.540924,139.456970 144.319153,152.640656 
	C136.344650,153.045074 130.519333,156.484711 125.500542,161.785431 
	C122.002144,165.480377 118.284142,168.966858 114.682968,172.565216 
	C111.886284,175.359695 109.531975,178.871964 106.247620,180.843262 
	C100.316383,184.403229 96.088737,189.121246 92.803314,195.070984 
	C92.167976,196.221542 89.801392,196.416107 88.233421,197.051666 
	C85.195221,187.959015 82.157021,178.866379 79.503540,169.298035 
	C83.495621,165.726730 87.001526,162.502319 90.732140,159.563126 
	C97.814758,153.983017 99.842499,144.602036 107.999763,139.139664 
	C113.710243,135.315735 116.367058,126.558571 119.665291,119.659309 
	C121.369560,116.094284 123.064445,114.935822 126.873726,115.595078 
	C128.451584,115.868164 130.312119,114.507973 132.044098,113.890549 
z"/>
<path fill="#47308C" opacity="1.000000" stroke="none" 
	d="
M195.545486,260.984161 
	C199.272064,264.111603 202.698105,267.406097 206.073898,270.751282 
	C207.722290,272.384766 209.187210,274.210999 210.896851,275.773071 
	C213.051834,277.742035 215.417343,279.478851 217.606979,281.412170 
	C219.440094,283.030731 221.524261,284.543213 222.831528,286.538788 
	C224.976257,289.812714 227.278229,292.118225 231.197495,293.685944 
	C234.338089,294.942230 236.589111,298.673950 238.957016,301.536957 
	C241.165604,304.207275 243.616684,304.869781 245.338348,301.781158 
	C248.693680,295.761719 252.357773,290.098724 249.119888,282.133392 
	C244.316711,270.317352 240.649368,258.006805 237.046173,245.745834 
	C234.034409,235.497437 227.693130,228.542953 218.350220,223.903534 
	C216.139816,222.805923 214.070282,221.424591 211.605865,220.103119 
	C212.650162,216.134460 214.024567,212.236435 215.882507,208.422653 
	C218.776352,210.457184 222.455063,211.942154 223.371597,214.440460 
	C226.844467,223.906799 233.536865,228.598526 243.063873,230.115189 
	C243.850739,230.240463 244.720596,230.552155 245.316742,231.055649 
	C250.136810,235.126587 253.570282,239.865036 255.274597,246.262054 
	C257.172424,253.385468 260.448730,260.141632 263.074341,267.431458 
	C263.020630,268.555420 263.017517,269.305603 263.014404,270.055817 
	C259.521210,279.594696 256.028046,289.133575 251.910583,299.048767 
	C249.582962,303.635254 247.879623,307.845459 245.751068,312.049072 
	C236.270142,314.824677 228.219116,310.295288 222.657593,305.190887 
	C217.867752,300.794708 208.060211,301.413879 207.979767,291.981659 
	C207.978088,291.784271 207.496475,291.566437 207.214233,291.399597 
	C202.834396,288.810516 196.961395,288.766663 194.015640,283.622437 
	C193.826614,283.292328 192.200165,283.703217 191.269638,283.898956 
	C189.824112,284.203064 188.402008,284.618530 186.971558,284.686340 
	C186.972702,283.985321 186.972260,283.584747 186.971802,283.184174 
	C189.722626,275.846802 192.473450,268.509460 195.545486,260.984161 
z"/>
<path fill="#5039A0" opacity="1.000000" stroke="none" 
	d="
M141.959137,334.114990 
	C135.449188,330.277466 131.551666,324.303833 127.941902,317.865082 
	C123.706566,310.310486 121.526733,302.099884 119.030090,293.241455 
	C119.911049,292.058319 120.748520,291.357086 121.687302,291.173279 
	C123.329102,290.851776 125.450684,291.445892 126.642555,290.613251 
	C133.727386,285.663971 140.609116,280.423462 147.546143,275.263336 
	C150.240768,273.258911 155.183960,274.136658 156.442383,277.255066 
	C157.653351,280.255829 159.073410,283.608459 158.821091,286.676483 
	C158.217834,294.012085 164.722900,297.029175 170.656754,296.847260 
	C173.251480,296.767700 176.087479,296.370361 178.405746,297.224762 
	C182.758057,298.828857 186.790146,298.713867 191.100952,297.286011 
	C192.852585,301.058350 194.436981,304.518219 195.754776,308.241333 
	C190.966232,309.921021 186.508987,311.622070 181.903046,312.668823 
	C177.811401,313.598663 173.538528,313.700531 169.376816,314.363617 
	C166.680801,314.793121 163.802322,315.104706 161.431610,316.308258 
	C157.864517,318.119171 154.603195,320.571747 151.341293,322.930481 
	C149.187973,324.487610 147.018372,326.150848 145.308167,328.152802 
	C143.855713,329.853058 143.050659,332.106384 141.959137,334.114990 
z"/>
<path fill="#3C2780" opacity="1.000000" stroke="none" 
	d="
M263.124969,267.057678 
	C260.448730,260.141632 257.172424,253.385468 255.274597,246.262054 
	C253.570282,239.865036 250.136810,235.126587 245.316742,231.055649 
	C244.720596,230.552155 243.850739,230.240463 243.063873,230.115189 
	C233.536865,228.598526 226.844467,223.906799 223.371597,214.440460 
	C222.455063,211.942154 218.776352,210.457184 216.165955,208.201569 
	C221.950256,191.286163 227.930328,174.674515 233.927963,158.069229 
	C234.368027,156.850845 234.935181,155.678375 235.745117,154.568420 
	C236.087311,155.106155 236.127609,155.560028 236.129333,156.412445 
	C237.664169,161.549454 239.237549,166.287903 240.877777,171.406830 
	C244.008209,180.193436 247.000366,188.626450 250.150284,197.000107 
	C256.683350,214.367371 263.300171,231.703110 269.897614,249.372025 
	C269.923248,250.119492 269.933838,250.546753 269.621735,251.138306 
	C267.241028,256.554321 265.183014,261.806000 263.124969,267.057678 
z"/>
<path fill="#6F52CC" opacity="1.000000" stroke="none" 
	d="
M132.012192,113.534912 
	C130.312119,114.507973 128.451584,115.868164 126.873726,115.595078 
	C123.064445,114.935822 121.369560,116.094284 119.665291,119.659309 
	C116.367058,126.558571 113.710243,135.315735 107.999763,139.139664 
	C99.842499,144.602036 97.814758,153.983017 90.732140,159.563126 
	C87.001526,162.502319 83.495621,165.726730 79.570709,168.903259 
	C75.828636,158.599762 72.404114,148.215393 69.262032,137.333160 
	C73.732620,132.419098 77.887436,127.970673 82.117340,123.594833 
	C87.453354,118.074745 93.113846,112.841431 98.125282,107.044312 
	C101.260658,103.417366 103.458405,98.979866 106.076866,94.906067 
	C118.082680,96.218048 126.624832,102.439987 132.012192,113.534912 
z"/>
<path fill="#5A41AB" opacity="1.000000" stroke="none" 
	d="
M190.933701,296.973541 
	C186.790146,298.713867 182.758057,298.828857 178.405746,297.224762 
	C176.087479,296.370361 173.251480,296.767700 170.656754,296.847260 
	C164.722900,297.029175 158.217834,294.012085 158.821091,286.676483 
	C159.073410,283.608459 157.653351,280.255829 156.442383,277.255066 
	C155.183960,274.136658 150.240768,273.258911 147.546143,275.263336 
	C140.609116,280.423462 133.727386,285.663971 126.642555,290.613251 
	C125.450684,291.445892 123.329102,290.851776 121.687302,291.173279 
	C120.748520,291.357086 119.911049,292.058319 118.978470,292.864380 
	C118.279671,291.071198 117.630363,288.940186 117.336868,286.389771 
	C121.764633,285.536407 120.805374,281.864380 121.874313,279.491180 
	C122.725128,277.602173 123.329102,274.348877 124.553520,274.086670 
	C131.936905,272.505463 136.397247,266.457306 142.542206,263.188354 
	C147.940887,260.316437 153.279373,257.881439 155.467178,251.613953 
	C155.613937,251.193527 156.083817,250.826584 156.487534,250.564178 
	C161.909256,247.040237 167.345947,243.539276 172.778931,240.032623 
	C176.552399,251.794327 180.333817,263.553497 184.092911,275.319824 
	C184.880295,277.784393 185.585342,280.275238 186.650055,282.969086 
	C186.972260,283.584747 186.972702,283.985321 186.863525,284.941864 
	C188.147156,289.323059 189.540436,293.148315 190.933701,296.973541 
z"/>
<path fill="#4D3497" opacity="1.000000" stroke="none" 
	d="
M142.145233,334.399048 
	C143.050659,332.106384 143.855713,329.853058 145.308167,328.152802 
	C147.018372,326.150848 149.187973,324.487610 151.341293,322.930481 
	C154.603195,320.571747 157.864517,318.119171 161.431610,316.308258 
	C163.802322,315.104706 166.680801,314.793121 169.376816,314.363617 
	C173.538528,313.700531 177.811401,313.598663 181.903046,312.668823 
	C186.508987,311.622070 190.966232,309.921021 196.033661,308.425262 
	C205.799042,321.928223 218.134506,329.712097 235.031311,329.006744 
	C234.715881,329.496399 234.400467,329.986023 233.584198,330.772797 
	C232.438416,332.069122 231.793457,333.068329 231.148499,334.067505 
	C231.148483,334.067505 231.144272,334.127838 230.875565,333.741699 
	C230.174210,334.018280 229.741562,334.681000 229.308929,335.343719 
	C229.308929,335.343719 229.277649,335.374237 228.931351,335.222565 
	C226.824951,336.236755 225.152237,337.570984 223.289032,338.538269 
	C216.583267,342.019440 209.813217,345.376770 203.067459,348.780914 
	C201.947235,349.065155 200.827026,349.349365 199.286957,349.351532 
	C196.537949,345.015686 194.244644,340.940399 191.842453,336.930359 
	C191.464645,336.299652 190.652100,335.688599 189.940842,335.537354 
	C185.235550,334.536804 180.513046,333.607971 175.776932,332.763641 
	C169.182068,331.587982 164.668365,333.333374 163.110901,337.539154 
	C162.076843,340.331543 161.037354,343.121857 160.000290,345.913116 
	C154.110641,342.169769 148.220978,338.426422 142.145233,334.399048 
M181.632111,329.795654 
	C181.788406,329.985382 181.944687,330.175110 182.100983,330.364838 
	C182.202728,330.270813 182.304474,330.176788 182.406219,330.082764 
	C182.227173,329.913696 182.048141,329.744659 181.632111,329.795654 
z"/>
<path fill="#2FD4CC" opacity="1.000000" stroke="none" 
	d="
M389.953125,164.891693 
	C389.953094,164.891693 390.023376,164.420181 390.268860,163.969559 
	C390.654602,162.974258 390.794830,162.429581 390.935059,161.884888 
	C391.582367,159.466370 392.229645,157.047867 393.357574,154.134308 
	C399.740997,154.040482 405.639557,154.649338 411.548065,154.769455 
	C415.442017,154.848602 419.879333,155.302063 423.146088,153.698685 
	C430.828461,149.928085 440.701935,149.937302 447.286774,154.869247 
	C451.065247,157.699280 455.004822,160.314178 458.674072,162.887207 
	C460.426788,161.662384 461.623901,160.825806 462.821045,159.989227 
	C461.265320,164.760315 459.709564,169.531387 457.652222,174.714142 
	C455.374359,175.012054 453.241730,175.495697 451.881561,174.684372 
	C444.777924,170.447235 438.925781,172.568039 433.495453,177.713745 
	C432.302673,178.844040 431.406097,180.391586 430.051544,181.223221 
	C427.729095,182.649078 425.073914,184.777557 422.700623,184.609009 
	C418.184235,184.288315 413.727325,182.692383 409.320740,181.374924 
	C403.875336,179.746841 398.613007,177.227554 393.069519,176.297256 
	C388.874939,175.593323 387.317322,174.637878 388.815399,170.432983 
	C389.186218,169.392151 388.915009,168.122620 388.938904,166.958206 
	C388.938934,166.958206 389.000000,166.996338 389.188049,166.776138 
	C389.568420,166.001190 389.760773,165.446442 389.953125,164.891693 
z"/>
<path fill="#2FDCD2" opacity="1.000000" stroke="none" 
	d="
M462.993958,159.648026 
	C461.623901,160.825806 460.426788,161.662384 458.674072,162.887207 
	C455.004822,160.314178 451.065247,157.699280 447.286774,154.869247 
	C440.701935,149.937302 430.828461,149.928085 423.146088,153.698685 
	C419.879333,155.302063 415.442017,154.848602 411.548065,154.769455 
	C405.639557,154.649338 399.740997,154.040482 393.507568,153.782150 
	C396.551025,143.037933 399.925079,132.150833 403.646942,121.474945 
	C405.245178,122.934296 406.294800,124.895370 407.779053,125.313492 
	C416.639252,127.809494 425.074097,132.164169 434.776917,131.208557 
	C437.422150,130.948059 440.203766,132.501480 442.969299,132.899017 
	C445.252167,133.227188 447.831329,132.476761 449.881958,133.253311 
	C455.965088,135.556961 461.851929,138.378967 467.814758,141.372314 
	C467.241394,144.174866 466.668793,146.603439 466.096191,149.032013 
	C465.119751,152.456955 464.143311,155.881882 462.993958,159.648026 
z"/>
<path fill="#31BCB8" opacity="1.000000" stroke="none" 
	d="
M439.837799,228.993729 
	C438.881226,232.732758 437.924652,236.471786 436.513367,240.596741 
	C434.332642,240.465332 432.530914,240.120224 430.894073,239.400253 
	C424.518311,236.595947 419.057343,230.214249 410.906677,234.484909 
	C410.481781,234.707504 409.654938,234.001587 409.033722,234.038483 
	C406.203308,234.206726 402.981171,233.706497 400.643005,234.901062 
	C396.754669,236.887634 393.272949,239.797165 389.912628,242.661377 
	C384.420258,247.342880 378.660095,251.677429 371.199829,251.683502 
	C368.535339,251.685669 365.868896,249.292282 363.203369,247.992340 
	C364.170868,244.616867 365.060486,241.216736 366.120850,237.870697 
	C368.995819,228.798248 371.943237,219.748749 375.363037,210.414124 
	C377.671448,211.764267 380.011963,213.083038 381.166504,215.085571 
	C383.107483,218.451981 384.939941,217.734375 388.078888,216.848343 
	C391.983826,215.746124 396.386353,215.699127 400.474335,216.133789 
	C405.461670,216.664093 410.415344,217.925674 415.254456,219.319336 
	C420.138428,220.725922 425.501770,220.201172 429.849091,224.077957 
	C432.517700,226.457748 436.464783,227.403839 439.837799,228.993729 
z"/>
<path fill="#26A1A0" opacity="1.000000" stroke="none" 
	d="
M371.994019,320.032928 
	C361.039093,311.310577 356.280029,298.925568 352.033722,286.241760 
	C351.665680,285.142395 351.406006,284.006805 351.033630,282.518494 
	C352.729126,277.871826 354.486938,273.594666 356.816162,269.396362 
	C358.924255,272.652100 360.460907,275.828949 362.063354,279.368988 
	C368.501343,295.339355 376.378998,309.838745 391.282898,319.288239 
	C388.955261,310.906860 383.179810,303.755676 382.608856,296.307709 
	C385.887299,294.970215 388.096832,293.967102 390.378326,293.169678 
	C392.261658,292.511444 394.602020,291.160675 396.089905,291.752075 
	C400.292603,293.422455 404.866760,295.223114 407.970612,298.305573 
	C411.339020,301.650696 414.081146,302.050507 417.824127,299.993042 
	C415.732330,309.523651 411.720428,318.096130 404.711304,325.765717 
	C403.875000,326.513092 403.477753,326.886902 403.080475,327.260712 
	C403.080475,327.260712 403.124603,327.156494 402.738495,327.128845 
	C391.079224,329.700287 381.227295,326.195190 371.994019,320.032928 
z"/>
<path fill="#2CAFAD" opacity="1.000000" stroke="none" 
	d="
M361.997559,279.005829 
	C360.460907,275.828949 358.924255,272.652100 357.144348,269.214966 
	C357.608307,266.224304 358.315521,263.493896 359.475403,260.404388 
	C362.891968,260.030823 365.874512,259.799103 368.815216,260.052704 
	C373.242645,260.434509 377.635193,261.203857 382.053070,261.718079 
	C385.937012,262.170135 389.829651,262.713837 393.729065,262.817627 
	C397.340057,262.913757 400.969421,262.529816 404.578461,262.216522 
	C405.014130,262.178711 405.761353,261.219482 405.709808,260.760864 
	C405.025269,254.671951 408.682861,254.418549 413.279449,254.581528 
	C415.498962,254.660202 417.744781,253.379227 420.012085,252.859421 
	C424.361664,251.862167 428.735077,250.968765 432.941498,250.377472 
	C431.287079,256.410309 429.789764,262.097900 428.292419,267.785492 
	C425.187164,277.271698 422.081879,286.757874 418.563538,296.543121 
	C416.521881,295.786560 414.893280,294.730957 413.368073,293.742371 
	C415.683472,287.148499 414.732086,286.637543 408.338501,284.849915 
	C399.554199,282.393860 391.094727,278.775391 382.501312,275.640564 
	C382.200012,275.530670 381.955658,275.265503 381.683655,275.074280 
	C373.096771,269.037750 367.602661,270.135040 361.997559,279.005829 
z"/>
<path fill="#37CFCC" opacity="1.000000" stroke="none" 
	d="
M347.758789,272.643524 
	C347.487366,272.941345 347.165649,272.831604 346.837738,272.807922 
	C341.669312,272.434662 333.711426,277.742767 331.767822,282.394867 
	C330.153442,286.258972 326.437347,285.355957 323.240784,285.402588 
	C320.945709,285.436035 318.651459,285.523224 316.356445,285.564667 
	C314.391174,285.600128 312.342651,285.968109 310.477844,285.543671 
	C307.088043,284.772156 304.172791,284.574860 302.756165,288.700592 
	C296.528107,286.322845 291.716522,289.504425 286.429688,291.616943 
	C289.416229,282.181641 292.714081,273.094635 296.402771,264.010162 
	C300.100250,264.680939 302.768311,264.477509 305.884125,262.085876 
	C311.342712,257.895996 317.579346,254.683731 323.626587,251.306534 
	C330.059845,247.713821 334.635986,248.296326 340.010559,252.939178 
	C340.010559,252.939178 340.059479,252.944794 340.049438,253.361877 
	C341.298096,256.522064 342.556793,259.265137 343.815491,262.008240 
	C345.112213,265.430817 346.408936,268.853424 347.758789,272.643524 
z"/>
<path fill="#2B908F" opacity="1.000000" stroke="none" 
	d="
M269.944458,250.973999 
	C269.933838,250.546753 269.923248,250.119492 270.068909,249.044373 
	C276.478821,231.778305 282.807556,215.187836 288.958771,198.531799 
	C292.819397,188.078110 296.413422,177.525955 300.351807,166.726227 
	C301.366516,162.597717 302.156525,158.760971 303.044373,154.686005 
	C303.393738,154.011246 303.645264,153.574738 303.896820,153.138214 
	C306.513153,160.190872 309.129456,167.243515 311.472717,174.757904 
	C310.382660,176.597412 309.326416,177.887985 308.787323,179.367081 
	C305.161072,189.315704 301.587250,199.284363 298.107330,209.285126 
	C293.979156,221.148972 289.962433,233.051590 285.660400,245.197418 
	C283.977112,249.334976 282.693512,253.283737 281.036285,257.068939 
	C279.541199,260.483765 277.637115,263.719543 275.913391,267.034271 
	C274.254333,262.602936 272.595245,258.171600 270.832397,253.072876 
	C270.467194,251.928329 270.205841,251.451157 269.944458,250.973999 
z"/>
<path fill="#2FB5B3" opacity="1.000000" stroke="none" 
	d="
M433.098602,250.032257 
	C428.735077,250.968765 424.361664,251.862167 420.012085,252.859421 
	C417.744781,253.379227 415.498962,254.660202 413.279449,254.581528 
	C408.682861,254.418549 405.025269,254.671951 405.709808,260.760864 
	C405.761353,261.219482 405.014130,262.178711 404.578461,262.216522 
	C400.969421,262.529816 397.340057,262.913757 393.729065,262.817627 
	C389.829651,262.713837 385.937012,262.170135 382.053070,261.718079 
	C377.635193,261.203857 373.242645,260.434509 368.815216,260.052704 
	C365.874512,259.799103 362.891968,260.030823 359.553467,260.022705 
	C360.472046,256.248535 361.765259,252.496979 363.130920,248.368866 
	C365.868896,249.292282 368.535339,251.685669 371.199829,251.683502 
	C378.660095,251.677429 384.420258,247.342880 389.912628,242.661377 
	C393.272949,239.797165 396.754669,236.887634 400.643005,234.901062 
	C402.981171,233.706497 406.203308,234.206726 409.033722,234.038483 
	C409.654938,234.001587 410.481781,234.707504 410.906677,234.484909 
	C419.057343,230.214249 424.518311,236.595947 430.894073,239.400253 
	C432.530914,240.120224 434.332642,240.465332 436.437103,240.987610 
	C435.931427,243.764679 435.047241,246.536774 433.813904,249.656143 
	C433.464722,250.003418 433.098602,250.032257 433.098602,250.032257 
z"/>
<path fill="#6248B5" opacity="1.000000" stroke="none" 
	d="
M102.983322,243.454376 
	C103.987114,243.870270 105.041496,244.672394 106.091713,245.479904 
	C107.938492,246.899857 109.915466,249.611847 111.596497,249.438705 
	C114.033379,249.187714 116.353378,246.984528 118.539413,245.365753 
	C120.393318,243.992935 121.809669,241.208054 123.726830,240.887985 
	C130.943039,239.683258 132.119034,232.984406 135.858917,228.655457 
	C136.470367,227.947662 136.854279,227.043304 137.907288,226.310059 
	C139.715942,226.365280 141.296341,226.824753 142.149078,226.233917 
	C146.550430,223.184494 151.256790,222.022537 156.590500,222.516159 
	C157.850052,222.632736 159.494797,221.413040 160.538467,220.379883 
	C162.140442,218.793991 163.375229,216.837189 164.765839,215.037781 
	C167.180115,222.752914 169.594406,230.468048 171.670471,238.564743 
	C170.020737,238.308990 168.759491,237.301437 167.386765,237.115128 
	C164.900848,236.777740 161.992737,236.119888 159.895447,237.040863 
	C155.038864,239.173538 150.527695,242.112717 145.943954,244.838379 
	C143.673050,246.188766 141.268051,247.504379 139.420288,249.336502 
	C135.392349,253.330353 128.598648,254.128998 126.617020,260.443756 
	C126.583458,260.550690 126.334976,260.640442 126.180397,260.651917 
	C119.275047,261.162781 115.592789,266.080597 111.946815,271.049133 
	C108.975227,261.980438 106.003632,252.911728 102.983322,243.454376 
z"/>
<path fill="#37CFCC" opacity="1.000000" stroke="none" 
	d="
M371.912415,320.385620 
	C381.227295,326.195190 391.079224,329.700287 402.788086,327.156006 
	C397.379120,332.131989 391.534424,337.053101 385.044189,342.092712 
	C384.281982,342.511139 384.165344,342.811096 384.048706,343.111023 
	C384.048706,343.111023 384.016663,343.031219 383.731964,342.835388 
	C382.006195,343.108215 380.565125,343.576935 378.830627,343.860626 
	C377.516449,342.027710 376.495636,340.379822 375.424561,338.650757 
	C374.060791,339.348480 372.823578,339.981445 371.167908,340.828522 
	C370.318298,339.129974 369.856171,337.458740 368.812073,336.322083 
	C367.695892,335.107056 365.945190,333.483521 364.618683,333.607941 
	C352.703827,334.725586 340.674377,335.880890 333.954987,348.086212 
	C324.710114,345.825897 316.431305,341.761505 309.368652,334.750366 
	C312.758026,332.818878 316.266541,330.914246 319.980347,329.581665 
	C325.251373,327.690308 330.652832,326.146149 336.049988,324.637451 
	C337.033264,324.362579 338.267731,324.941681 339.376526,325.172974 
	C340.504120,325.408173 341.647247,326.014130 342.736176,325.918427 
	C351.158997,325.178162 359.583252,324.411591 367.972260,323.372101 
	C369.346130,323.201843 370.548920,321.651062 371.912415,320.385620 
z"/>
<path fill="#2CE8E0" opacity="1.000000" stroke="none" 
	d="
M406.965240,112.905212 
	C408.897278,106.885628 412.992310,102.473839 418.241241,99.427414 
	C433.877350,90.352386 445.640930,92.877335 460.143158,102.007484 
	C463.158844,103.906075 464.744659,108.075851 467.141663,111.770508 
	C467.487762,112.599266 467.727905,112.801643 468.014221,112.949203 
	C468.014221,112.949203 468.046906,112.957993 468.037140,113.384148 
	C468.318542,115.610641 469.102081,117.515617 468.748596,119.178963 
	C468.453552,120.567497 466.710876,122.801590 465.809296,122.709221 
	C461.824524,122.300980 457.643982,121.792343 454.033691,120.192909 
	C448.041046,117.538048 442.257782,116.303230 435.774902,118.105743 
	C433.012238,118.873878 429.900970,118.660637 426.973938,118.478363 
	C424.666656,118.334679 422.398987,117.555260 420.113708,117.058205 
	C416.795685,116.425117 413.763977,115.443169 410.679108,115.229691 
	C408.748077,115.096054 406.943970,115.769905 406.965240,112.905212 
z"/>
<path fill="#402D83" opacity="1.000000" stroke="none" 
	d="
M235.326019,328.867859 
	C218.134506,329.712097 205.799042,321.928223 196.300293,308.161987 
	C194.436981,304.518219 192.852585,301.058350 191.100952,297.286011 
	C189.540436,293.148315 188.147156,289.323059 186.861938,285.242310 
	C188.402008,284.618530 189.824112,284.203064 191.269638,283.898956 
	C192.200165,283.703217 193.826614,283.292328 194.015640,283.622437 
	C196.961395,288.766663 202.834396,288.810516 207.214233,291.399597 
	C207.496475,291.566437 207.978088,291.784271 207.979767,291.981659 
	C208.060211,301.413879 217.867752,300.794708 222.657593,305.190887 
	C228.219116,310.295288 236.270142,314.824677 245.695099,312.413086 
	C244.259689,316.173584 242.455048,319.563477 240.650391,322.953369 
	C238.973846,324.878571 237.297302,326.803802 235.326019,328.867859 
z"/>
<path fill="#31CDC6" opacity="1.000000" stroke="none" 
	d="
M388.600098,167.137573 
	C388.915009,168.122620 389.186218,169.392151 388.815399,170.432983 
	C387.317322,174.637878 388.874939,175.593323 393.069519,176.297256 
	C398.613007,177.227554 403.875336,179.746841 409.320740,181.374924 
	C413.727325,182.692383 418.184235,184.288315 422.700623,184.609009 
	C425.073914,184.777557 427.729095,182.649078 430.051544,181.223221 
	C431.406097,180.391586 432.302673,178.844040 433.495453,177.713745 
	C438.925781,172.568039 444.777924,170.447235 451.881561,174.684372 
	C453.241730,175.495697 455.374359,175.012054 457.491058,175.058395 
	C457.549835,176.077454 457.268158,177.163940 456.601562,178.784927 
	C454.503204,184.895493 452.789734,190.471558 451.076233,196.047607 
	C450.436859,198.132584 449.797485,200.217560 448.715027,202.804611 
	C447.624512,204.900040 446.977081,206.493408 446.000580,207.995972 
	C445.356476,206.111496 445.041504,204.317856 444.724609,202.513336 
	C437.932922,203.198441 437.947784,203.173172 431.041504,199.110703 
	C429.916412,198.448868 428.588043,198.136917 427.363770,197.638397 
	C424.352966,196.412384 421.373993,195.103104 418.333435,193.956696 
	C415.325165,192.822464 412.282135,191.765167 409.208313,190.824478 
	C406.112183,189.876999 402.974548,189.653244 400.998016,186.089111 
	C400.136505,184.535629 396.633392,183.699249 394.390442,183.806152 
	C388.678802,184.078400 386.345367,182.758514 385.963165,177.901749 
	C386.729187,174.373489 387.495239,170.845215 388.600098,167.137573 
z"/>
<path fill="#27AAA6" opacity="1.000000" stroke="none" 
	d="
M362.063354,279.368988 
	C367.602661,270.135040 373.096771,269.037750 381.683655,275.074280 
	C381.955658,275.265503 382.200012,275.530670 382.501312,275.640564 
	C391.094727,278.775391 399.554199,282.393860 408.338501,284.849915 
	C414.732086,286.637543 415.683472,287.148499 413.368073,293.742371 
	C414.893280,294.730957 416.521881,295.786560 418.477264,296.920532 
	C418.530182,297.787872 418.256317,298.576843 417.903290,299.679413 
	C414.081146,302.050507 411.339020,301.650696 407.970612,298.305573 
	C404.866760,295.223114 400.292603,293.422455 396.089905,291.752075 
	C394.602020,291.160675 392.261658,292.511444 390.378326,293.169678 
	C388.096832,293.967102 385.887299,294.970215 382.608856,296.307709 
	C383.179810,303.755676 388.955261,310.906860 391.282898,319.288239 
	C376.378998,309.838745 368.501343,295.339355 362.063354,279.368988 
z"/>
<path fill="#5E43B3" opacity="1.000000" stroke="none" 
	d="
M237.047409,150.011307 
	C238.894211,144.808945 241.192230,139.927750 246.715714,137.346817 
	C248.280136,138.415985 249.658508,140.024246 250.501266,139.780533 
	C253.919037,138.792068 257.500000,137.684570 260.306549,135.640396 
	C261.275818,134.934433 260.167389,131.375824 260.008057,129.120285 
	C268.051025,127.374718 275.956696,127.819519 283.554993,131.033844 
	C291.762115,134.505753 298.493347,139.678207 301.528992,148.562714 
	C299.645050,148.672958 298.148102,148.177216 296.743561,148.366547 
	C289.578400,149.332352 282.453094,150.601593 275.281158,151.505280 
	C271.409302,151.993149 267.452576,152.310806 263.568237,152.094025 
	C254.716797,151.600037 245.886368,150.729095 237.047409,150.011307 
z"/>
<path fill="#30C2BC" opacity="1.000000" stroke="none" 
	d="
M439.999756,228.666306 
	C436.464783,227.403839 432.517700,226.457748 429.849091,224.077957 
	C425.501770,220.201172 420.138428,220.725922 415.254456,219.319336 
	C410.415344,217.925674 405.461670,216.664093 400.474335,216.133789 
	C396.386353,215.699127 391.983826,215.746124 388.078888,216.848343 
	C384.939941,217.734375 383.107483,218.451981 381.166504,215.085571 
	C380.011963,213.083038 377.671448,211.764267 375.529388,210.066193 
	C376.809784,204.919205 378.424957,199.844131 380.445007,194.461121 
	C384.599091,198.263062 390.002350,197.919601 394.713959,199.532806 
	C400.209167,201.414307 405.481873,202.505554 411.297241,201.574738 
	C412.936951,201.312286 415.711090,202.466461 416.530121,203.831650 
	C418.811310,207.634109 421.837036,208.359772 425.972412,208.806519 
	C429.367859,209.173355 434.304779,210.985199 435.386505,213.513596 
	C437.180664,217.707199 439.624939,218.020401 443.040924,218.394928 
	C443.057251,219.529709 443.084473,220.284698 443.111725,221.039673 
	C442.128387,223.472748 441.145050,225.905823 439.999756,228.666306 
z"/>
<path fill="#33ADAD" opacity="1.000000" stroke="none" 
	d="
M285.897400,244.937393 
	C289.962433,233.051590 293.979156,221.148972 298.107330,209.285126 
	C301.587250,199.284363 305.161072,189.315704 308.787323,179.367081 
	C309.326416,177.887985 310.382660,176.597412 311.529297,175.124893 
	C315.161652,183.804459 318.464386,192.578751 321.518494,201.854355 
	C319.856964,203.882278 317.984192,205.184753 317.111755,206.974792 
	C313.573944,214.233627 310.343536,221.642273 306.934082,229.356079 
	C305.911865,232.143509 304.955322,234.570526 303.617493,237.003204 
	C302.193176,237.394440 301.115967,237.707245 300.112976,238.178055 
	C295.363373,240.407516 290.634003,242.680145 285.897400,244.937393 
z"/>
<path fill="#2FE2DB" opacity="1.000000" stroke="none" 
	d="
M406.631348,113.069168 
	C406.943970,115.769905 408.748077,115.096054 410.679108,115.229691 
	C413.763977,115.443169 416.795685,116.425117 420.113708,117.058205 
	C422.398987,117.555260 424.666656,118.334679 426.973938,118.478363 
	C429.900970,118.660637 433.012238,118.873878 435.774902,118.105743 
	C442.257782,116.303230 448.041046,117.538048 454.033691,120.192909 
	C457.643982,121.792343 461.824524,122.300980 465.809296,122.709221 
	C466.710876,122.801590 468.453552,120.567497 468.748596,119.178963 
	C469.102081,117.515617 468.318542,115.610641 468.041443,113.400528 
	C471.837036,118.530800 471.976746,124.851997 471.573669,131.726227 
	C470.061676,135.163635 468.938568,138.080978 467.815491,140.998322 
	C461.851929,138.378967 455.965088,135.556961 449.881958,133.253311 
	C447.831329,132.476761 445.252167,133.227188 442.969299,132.899017 
	C440.203766,132.501480 437.422150,130.948059 434.776917,131.208557 
	C425.074097,132.164169 416.639252,127.809494 407.779053,125.313492 
	C406.294800,124.895370 405.245178,122.934296 403.974365,121.293907 
	C404.735138,118.345482 405.516327,115.789307 406.631348,113.069168 
z"/>
<path fill="#35C8C2" opacity="1.000000" stroke="none" 
	d="
M303.998779,236.997559 
	C304.955322,234.570526 305.911865,232.143509 307.390228,229.355591 
	C313.680969,229.628479 319.069763,228.488113 324.008698,225.430862 
	C327.434296,223.310364 328.883881,224.684784 330.001587,228.141953 
	C330.792603,230.588440 332.524261,232.730774 333.836029,235.008881 
	C335.887665,240.724106 337.939301,246.439316 340.000763,252.546860 
	C334.635986,248.296326 330.059845,247.713821 323.626587,251.306534 
	C317.579346,254.683731 311.342712,257.895996 305.884125,262.085876 
	C302.768311,264.477509 300.100250,264.680939 296.547119,263.664520 
	C298.866699,254.543411 301.432739,245.770477 303.998779,236.997559 
z"/>
<path fill="#694DC2" opacity="1.000000" stroke="none" 
	d="
M164.724365,214.667770 
	C163.375229,216.837189 162.140442,218.793991 160.538467,220.379883 
	C159.494797,221.413040 157.850052,222.632736 156.590500,222.516159 
	C151.256790,222.022537 146.550430,223.184494 142.149078,226.233917 
	C141.296341,226.824753 139.715942,226.365280 138.235199,226.192688 
	C133.505402,221.288742 134.558655,215.101273 135.963562,210.302048 
	C137.876236,203.768143 142.264755,197.958298 145.600311,191.842728 
	C145.915268,191.265289 146.661194,190.664062 146.584244,190.171112 
	C145.650742,184.190979 148.420578,179.403839 151.571686,174.375473 
	C156.053452,187.487564 160.368179,200.892654 164.724365,214.667770 
z"/>
<path fill="#694DC2" opacity="1.000000" stroke="none" 
	d="
M88.171310,197.340454 
	C89.801392,196.416107 92.167976,196.221542 92.803314,195.070984 
	C96.088737,189.121246 100.316383,184.403229 106.247620,180.843262 
	C109.531975,178.871964 111.886284,175.359695 114.682968,172.565216 
	C118.284142,168.966858 122.002144,165.480377 125.500542,161.785431 
	C130.519333,156.484711 136.344650,153.045074 144.208160,153.011230 
	C146.056213,157.051514 147.545090,161.121689 149.046814,165.583817 
	C146.946411,168.494049 145.022644,171.211334 142.656647,173.464188 
	C140.932037,175.106308 139.079819,175.894058 136.030899,174.812820 
	C133.860687,174.043182 129.678802,175.566193 128.005295,177.476791 
	C124.479828,181.501694 120.752251,183.958038 115.475250,185.384033 
	C112.117218,186.291473 109.042068,189.767883 106.749069,192.783493 
	C101.686943,199.440872 98.102112,201.111954 89.306862,199.182526 
	C88.652344,198.566910 88.380768,198.098083 88.171310,197.340454 
z"/>
<path fill="#35C8C2" opacity="1.000000" stroke="none" 
	d="
M443.051819,218.015121 
	C439.624939,218.020401 437.180664,217.707199 435.386505,213.513596 
	C434.304779,210.985199 429.367859,209.173355 425.972412,208.806519 
	C421.837036,208.359772 418.811310,207.634109 416.530121,203.831650 
	C415.711090,202.466461 412.936951,201.312286 411.297241,201.574738 
	C405.481873,202.505554 400.209167,201.414307 394.713959,199.532806 
	C390.002350,197.919601 384.599091,198.263062 380.520325,194.077423 
	C381.897369,188.762268 383.604065,183.522903 385.636963,178.092651 
	C386.345367,182.758514 388.678802,184.078400 394.390442,183.806152 
	C396.633392,183.699249 400.136505,184.535629 400.998016,186.089111 
	C402.974548,189.653244 406.112183,189.876999 409.208313,190.824478 
	C412.282135,191.765167 415.325165,192.822464 418.333435,193.956696 
	C421.373993,195.103104 424.352966,196.412384 427.363770,197.638397 
	C428.588043,198.136917 429.916412,198.448868 431.041504,199.110703 
	C437.947784,203.173172 437.932922,203.198441 444.724609,202.513336 
	C445.041504,204.317856 445.356476,206.111496 445.921875,208.334290 
	C445.132111,211.847321 444.091980,214.931213 443.051819,218.015121 
z"/>
<path fill="#5E43B3" opacity="1.000000" stroke="none" 
	d="
M111.980927,271.440735 
	C115.592789,266.080597 119.275047,261.162781 126.180397,260.651917 
	C126.334976,260.640442 126.583458,260.550690 126.617020,260.443756 
	C128.598648,254.128998 135.392349,253.330353 139.420288,249.336502 
	C141.268051,247.504379 143.673050,246.188766 145.943954,244.838379 
	C150.527695,242.112717 155.038864,239.173538 159.895447,237.040863 
	C161.992737,236.119888 164.900848,236.777740 167.386765,237.115128 
	C168.759491,237.301437 170.020737,238.308990 171.714966,238.959824 
	C172.459167,239.018097 172.709122,239.208939 172.813232,239.789246 
	C167.345947,243.539276 161.909256,247.040237 156.487534,250.564178 
	C156.083817,250.826584 155.613937,251.193527 155.467178,251.613953 
	C153.279373,257.881439 147.940887,260.316437 142.542206,263.188354 
	C136.397247,266.457306 131.936905,272.505463 124.553520,274.086670 
	C123.329102,274.348877 122.725128,277.602173 121.874313,279.491180 
	C120.805374,281.864380 121.764633,285.536407 117.307724,285.999115 
	C115.286858,281.296051 113.650948,276.564178 111.980927,271.440735 
z"/>
<path fill="#765ACD" opacity="1.000000" stroke="none" 
	d="
M105.826767,94.554733 
	C103.458405,98.979866 101.260658,103.417366 98.125282,107.044312 
	C93.113846,112.841431 87.453354,118.074745 82.117340,123.594833 
	C77.887436,127.970673 73.732620,132.419098 69.214645,136.937469 
	C60.959473,116.110870 78.276817,93.987587 99.616234,94.065208 
	C101.603188,94.072433 103.589859,94.155525 105.826767,94.554733 
z"/>
<path fill="#3BB8B5" opacity="1.000000" stroke="none" 
	d="
M303.617493,237.003204 
	C301.432739,245.770477 298.866699,254.543411 296.156311,263.661987 
	C292.714081,273.094635 289.416229,282.181641 286.068878,291.635986 
	C286.010895,292.443481 286.002411,292.883636 285.781525,293.667480 
	C285.569122,294.011200 285.149170,294.048187 285.149170,294.048187 
	C282.102661,285.310272 279.056122,276.572327 275.961487,267.434326 
	C277.637115,263.719543 279.541199,260.483765 281.036285,257.068939 
	C282.693512,253.283737 283.977112,249.334976 285.660400,245.197418 
	C290.634003,242.680145 295.363373,240.407516 300.112976,238.178055 
	C301.115967,237.707245 302.193176,237.394440 303.617493,237.003204 
z"/>
<path fill="#37CFCC" opacity="1.000000" stroke="none" 
	d="
M300.071686,63.931137 
	C301.656250,66.069145 303.240784,68.207153 304.994385,70.940399 
	C305.465210,72.005814 305.766998,72.476006 306.068787,72.946190 
	C306.068787,72.946190 306.057892,72.997459 305.974823,73.331009 
	C304.030823,74.771408 302.289764,76.480705 300.287842,76.879189 
	C292.290833,78.471008 284.212646,79.655296 276.164520,80.990402 
	C273.792450,78.663292 271.420380,76.336182 269.038605,73.999550 
	C267.685608,75.495461 266.408936,76.906944 264.694305,78.669388 
	C263.902863,79.036827 263.549408,79.053314 262.812622,78.993439 
	C252.655807,76.502159 242.882339,74.087234 233.108887,71.672318 
	C233.108887,71.672318 233.297775,71.244743 233.763153,71.019012 
	C234.464722,70.497116 234.700928,70.200943 234.937134,69.904770 
	C237.052185,66.673973 239.167236,63.443172 241.585770,60.405937 
	C240.979782,64.275780 244.021790,64.317352 246.059540,64.726440 
	C261.918976,67.910271 277.761414,71.216698 294.140808,69.082474 
	C297.605072,68.631088 299.897919,67.739380 300.071686,63.931137 
z"/>
<path fill="#694DC2" opacity="1.000000" stroke="none" 
	d="
M303.910400,152.791260 
	C303.645264,153.574738 303.393738,154.011246 302.684967,154.727570 
	C297.948303,159.197205 293.703064,163.422806 289.371429,167.557922 
	C287.797028,169.060883 286.224579,170.877853 284.292053,171.636169 
	C278.017426,174.098343 271.578522,176.142654 265.198883,178.336166 
	C260.681732,179.889252 252.369766,176.731949 250.161911,173.054825 
	C247.628616,168.835663 244.846466,164.735657 241.829956,160.849747 
	C240.339508,158.929703 238.079636,157.606934 236.167908,156.013901 
	C236.127609,155.560028 236.087311,155.106155 235.994141,154.315155 
	C235.941299,153.978043 235.988068,153.499557 236.319244,153.273773 
	C238.081573,153.793335 239.720383,154.297073 240.911926,155.321213 
	C253.746429,166.352631 281.525482,168.557449 295.365387,155.443512 
	C297.464264,153.454742 299.816162,151.733002 302.051025,149.887741 
	C302.675323,150.739944 303.299652,151.592133 303.910400,152.791260 
z"/>
<path fill="#6348BD" opacity="1.000000" stroke="none" 
	d="
M302.009430,149.664505 
	C299.816162,151.733002 297.464264,153.454742 295.365387,155.443512 
	C281.525482,168.557449 253.746429,166.352631 240.911926,155.321213 
	C239.720383,154.297073 238.081573,153.793335 236.281281,153.036407 
	C236.131989,152.121689 236.351868,151.218536 236.809570,150.163330 
	C245.886368,150.729095 254.716797,151.600037 263.568237,152.094025 
	C267.452576,152.310806 271.409302,151.993149 275.281158,151.505280 
	C282.453094,150.601593 289.578400,149.332352 296.743561,148.366547 
	C298.148102,148.177216 299.645050,148.672958 301.462952,148.931213 
	C301.826569,149.009674 301.967834,149.441269 302.009430,149.664505 
z"/>
<path fill="#34D5CF" opacity="1.000000" stroke="none" 
	d="
M299.964783,63.659691 
	C299.897919,67.739380 297.605072,68.631088 294.140808,69.082474 
	C277.761414,71.216698 261.918976,67.910271 246.059540,64.726440 
	C244.021790,64.317352 240.979782,64.275780 241.904327,60.274033 
	C243.392303,58.017689 244.865234,56.086815 246.787567,54.379848 
	C250.998428,55.402222 254.729675,56.410511 258.527344,56.957722 
	C267.918610,58.310928 277.351318,59.376007 286.744659,60.716026 
	C290.768402,61.290035 293.720306,60.709122 294.047211,55.900978 
	C294.971344,57.036663 295.895508,58.172352 296.990265,59.905991 
	C297.715454,61.006699 298.269989,61.509460 298.824554,62.012218 
	C299.168976,62.470894 299.513428,62.929569 299.964783,63.659691 
z"/>
<path fill="#47308C" opacity="1.000000" stroke="none" 
	d="
M160.395996,345.944153 
	C161.037354,343.121857 162.076843,340.331543 163.110901,337.539154 
	C164.668365,333.333374 169.182068,331.587982 175.776932,332.763641 
	C180.513046,333.607971 185.235550,334.536804 189.940842,335.537354 
	C190.652100,335.688599 191.464645,336.299652 191.842453,336.930359 
	C194.244644,340.940399 196.537949,345.015686 198.940796,349.412170 
	C185.890976,352.363831 173.186752,350.732910 160.395996,345.944153 
z"/>
<path fill="#35C8C2" opacity="1.000000" stroke="none" 
	d="
M334.159851,348.428955 
	C340.674377,335.880890 352.703827,334.725586 364.618683,333.607941 
	C365.945190,333.483521 367.695892,335.107056 368.812073,336.322083 
	C369.856171,337.458740 370.318298,339.129974 371.167908,340.828522 
	C372.823578,339.981445 374.060791,339.348480 375.424561,338.650757 
	C376.495636,340.379822 377.516449,342.027710 378.599670,344.148560 
	C374.084930,346.339203 369.507690,348.056976 364.930450,349.774719 
	C354.661255,351.897247 344.484711,351.196808 334.159851,348.428955 
z"/>
<path fill="#2FE2DB" opacity="1.000000" stroke="none" 
	d="
M293.974091,55.660706 
	C293.720306,60.709122 290.768402,61.290035 286.744659,60.716026 
	C277.351318,59.376007 267.918610,58.310928 258.527344,56.957722 
	C254.729675,56.410511 250.998428,55.402222 247.097809,54.248344 
	C249.081467,50.984837 251.204285,48.076736 253.795898,45.344456 
	C255.286682,46.132473 256.266815,47.175720 257.338135,47.279701 
	C261.257843,47.660145 265.209656,47.902519 269.146057,47.863064 
	C272.926514,47.825176 276.708405,47.433247 280.479279,47.084610 
	C283.601257,46.795963 284.827972,45.036221 284.059814,41.957008 
	C284.702942,42.717907 285.346100,43.478806 286.138977,44.775986 
	C286.542328,45.525253 286.795990,45.738235 287.049622,45.951218 
	C287.049622,45.951218 287.039154,45.994987 287.096466,46.273926 
	C287.709015,47.050484 288.264221,47.548103 288.819427,48.045727 
	C288.819427,48.045731 288.972168,48.465836 289.053253,48.984982 
	C289.693512,50.014969 290.252716,50.525810 290.811890,51.036648 
	C291.161743,51.488422 291.511597,51.940197 291.991730,52.952087 
	C292.437317,53.975708 292.752655,54.439217 293.067963,54.902725 
	C293.345642,55.075294 293.623291,55.247864 293.974091,55.660706 
z"/>
<path fill="#35C8C2" opacity="1.000000" stroke="none" 
	d="
M276.096619,81.340988 
	C284.212646,79.655296 292.290833,78.471008 300.287842,76.879189 
	C302.289764,76.480705 304.030823,74.771408 305.992737,73.311020 
	C308.648102,76.390854 311.202484,79.824211 313.921509,83.903717 
	C313.171844,86.004524 312.551392,88.330124 311.289825,88.755882 
	C306.933655,90.226006 302.344238,90.994598 297.862366,92.105873 
	C294.190613,93.016273 290.545563,94.034378 286.888672,95.004730 
	C283.268707,90.567017 279.648712,86.129303 276.096619,81.340988 
z"/>
<path fill="#3BB8B5" opacity="1.000000" stroke="none" 
	d="
M221.176651,88.032051 
	C223.884628,84.079384 226.592621,80.126709 229.763855,76.336143 
	C231.037796,77.519165 231.667114,79.166145 232.687881,79.461853 
	C240.789062,81.808708 248.964676,83.898659 257.020996,86.418839 
	C256.631195,87.873558 256.337860,88.976936 256.044556,90.080315 
	C256.044556,90.080315 256.026276,90.015190 255.720047,89.970551 
	C255.281662,90.315315 255.149521,90.704727 255.017365,91.094131 
	C255.017349,91.094131 255.018173,91.024475 254.704758,90.909111 
	C252.941360,92.890846 251.491394,94.987953 250.041428,97.085068 
	C250.041428,97.085068 250.025726,97.018913 249.708588,96.956924 
	C249.270676,97.295685 249.149887,97.696426 249.029099,98.097176 
	C249.029099,98.097176 249.015076,98.027550 248.754578,97.839645 
	C247.473526,98.157181 246.452972,98.662613 245.038910,99.085846 
	C237.983566,96.384743 231.287140,93.848274 224.688385,91.079018 
	C223.330688,90.509247 222.337738,89.070343 221.176651,88.032051 
z"/>
<path fill="#31BCB8" opacity="1.000000" stroke="none" 
	d="
M333.910858,234.632690 
	C332.524261,232.730774 330.792603,230.588440 330.001587,228.141953 
	C328.883881,224.684784 327.434296,223.310364 324.008698,225.430862 
	C319.069763,228.488113 313.680969,229.628479 307.455872,228.995178 
	C310.343536,221.642273 313.573944,214.233627 317.111755,206.974792 
	C317.984192,205.184753 319.856964,203.882278 321.576111,202.225739 
	C325.170349,210.863358 328.456146,219.631714 331.748047,228.397797 
	C332.482971,230.354828 333.239227,232.303818 333.910858,234.632690 
z"/>
<path fill="#2CE8E0" opacity="1.000000" stroke="none" 
	d="
M283.982605,41.700455 
	C284.827972,45.036221 283.601257,46.795963 280.479279,47.084610 
	C276.708405,47.433247 272.926514,47.825176 269.146057,47.863064 
	C265.209656,47.902519 261.257843,47.660145 257.338135,47.279701 
	C256.266815,47.175720 255.286682,46.132473 254.110138,45.209301 
	C253.955612,44.898331 254.025970,44.444962 254.391724,44.140316 
	C255.151382,43.212273 255.545273,42.588875 255.939178,41.965485 
	C259.484314,35.031788 265.622528,33.126202 272.720612,33.866093 
	C275.010315,34.104774 277.145050,35.830421 279.834198,37.185425 
	C280.538269,37.699898 280.790771,37.851620 281.075226,37.950195 
	C281.357025,38.129883 281.638794,38.309566 282.027130,39.010155 
	C282.431976,39.976891 282.730316,40.422722 283.028625,40.868549 
	C283.320892,41.060333 283.613129,41.252117 283.982605,41.700455 
z"/>
<path fill="#33ADAD" opacity="1.000000" stroke="none" 
	d="
M220.977753,88.390564 
	C222.337738,89.070343 223.330688,90.509247 224.688385,91.079018 
	C231.287140,93.848274 237.983566,96.384743 245.005707,99.448471 
	C245.189346,100.844620 245.012695,101.795937 244.836060,102.747261 
	C239.541885,107.590797 232.521347,108.433922 226.802536,104.912979 
	C221.258408,101.499580 218.979599,95.384666 220.977753,88.390564 
z"/>
<path fill="#35C8C2" opacity="1.000000" stroke="none" 
	d="
M257.117432,86.067490 
	C248.964676,83.898659 240.789062,81.808708 232.687881,79.461853 
	C231.667114,79.166145 231.037796,77.519165 230.063293,76.165802 
	C230.797150,74.549744 231.694809,73.266129 232.850677,71.827408 
	C242.882339,74.087234 252.655807,76.502159 262.671600,79.325912 
	C262.295929,81.181168 261.677917,82.627594 261.059937,84.074020 
	C261.059937,84.074020 261.017426,84.008804 260.687195,83.876549 
	C259.923309,84.529106 259.489624,85.313919 259.055939,86.098732 
	C259.055939,86.098732 259.000214,86.005646 258.777802,85.759247 
	C258.076080,85.697723 257.596741,85.882607 257.117432,86.067490 
z"/>
<path fill="#3BB8B5" opacity="1.000000" stroke="none" 
	d="
M287.036499,95.313919 
	C290.545563,94.034378 294.190613,93.016273 297.862366,92.105873 
	C302.344238,90.994598 306.933655,90.226006 311.289825,88.755882 
	C312.551392,88.330124 313.171844,86.004524 314.062927,84.218750 
	C315.281708,86.029770 316.523743,88.171906 317.492981,90.777710 
	C315.003540,93.101540 313.020233,96.081337 310.524323,96.601509 
	C304.277557,97.903397 297.813049,98.153191 291.974701,101.143478 
	C290.377930,99.303352 288.781158,97.463226 287.036499,95.313919 
z"/>
<path fill="#33ADAD" opacity="1.000000" stroke="none" 
	d="
M292.115692,101.446213 
	C297.813049,98.153191 304.277557,97.903397 310.524323,96.601509 
	C313.020233,96.081337 315.003540,93.101540 317.528900,91.131828 
	C317.879883,91.748901 317.922150,92.475533 317.602478,93.764404 
	C315.830658,97.250603 314.420807,100.174561 313.010986,103.098526 
	C313.010986,103.098526 313.008972,103.007156 312.723145,103.002533 
	C312.296204,103.364723 312.155121,103.731537 312.014008,104.098358 
	C312.014008,104.098358 312.018860,104.025215 311.701050,103.913216 
	C309.256989,104.797287 307.130737,105.793350 305.004486,106.789421 
	C299.665924,107.864143 295.701965,105.462410 292.115692,101.446213 
z"/>
<path fill="#5A41AB" opacity="1.000000" stroke="none" 
	d="
M259.658508,129.194016 
	C260.167389,131.375824 261.275818,134.934433 260.306549,135.640396 
	C257.500000,137.684570 253.919037,138.792068 250.501266,139.780533 
	C249.658508,140.024246 248.280136,138.415985 247.065552,137.298325 
	C251.091721,134.380951 255.200317,131.824356 259.658508,129.194016 
z"/>
<path fill="#E4F5F4" opacity="1.000000" stroke="none" 
	d="
M203.469162,348.845947 
	C209.813217,345.376770 216.583267,342.019440 223.289032,338.538269 
	C225.152237,337.570984 226.824951,336.236755 228.913422,335.235046 
	C227.707626,336.895905 226.425797,338.922211 224.594299,339.794769 
	C217.784363,343.038971 210.793686,345.903778 203.469162,348.845947 
z"/>
<path fill="#E4F5F4" opacity="1.000000" stroke="none" 
	d="
M241.033661,322.964783 
	C242.455048,319.563477 244.259689,316.173584 246.120300,312.419678 
	C247.879623,307.845459 249.582962,303.635254 251.600342,299.249695 
	C250.510696,307.961884 247.717880,316.239410 241.033661,322.964783 
z"/>
<path fill="#E4F5F4" opacity="1.000000" stroke="none" 
	d="
M467.814758,141.372314 
	C468.938568,138.080978 470.061676,135.163635 471.510986,132.182037 
	C470.189697,137.748276 468.542175,143.378784 466.495422,149.020660 
	C466.668793,146.603439 467.241394,144.174866 467.814758,141.372314 
z"/>
<path fill="#E4F5F4" opacity="1.000000" stroke="none" 
	d="
M443.040924,218.394928 
	C444.091980,214.931213 445.132111,211.847321 446.250977,208.425110 
	C446.977081,206.493408 447.624512,204.900040 448.556854,203.141876 
	C447.155243,208.900375 445.468750,214.823669 443.446960,220.893311 
	C443.084473,220.284698 443.057251,219.529709 443.040924,218.394928 
z"/>
<path fill="#E4F5F4" opacity="1.000000" stroke="none" 
	d="
M365.346008,349.861237 
	C369.507690,348.056976 374.084930,346.339203 378.893097,344.333557 
	C380.565125,343.576935 382.006195,343.108215 383.767029,342.860229 
	C377.978363,345.369873 371.869934,347.658813 365.346008,349.861237 
z"/>
<path fill="#E4F5F4" opacity="1.000000" stroke="none" 
	d="
M432.941498,250.377472 
	C433.098602,250.032257 433.464722,250.003418 433.647919,249.992020 
	C433.194183,253.045059 432.722595,256.156311 431.872223,259.160309 
	C431.078156,261.965332 429.881805,264.656433 428.577484,267.591583 
	C429.789764,262.097900 431.287079,256.410309 432.941498,250.377472 
z"/>
<path fill="#E4F5F4" opacity="1.000000" stroke="none" 
	d="
M451.423065,195.922134 
	C452.789734,190.471558 454.503204,184.895493 456.519043,179.129929 
	C455.137543,184.559174 453.453705,190.177917 451.423065,195.922134 
z"/>
<path fill="#E4F5F4" opacity="1.000000" stroke="none" 
	d="
M269.621765,251.138306 
	C270.205841,251.451157 270.467194,251.928329 270.788086,252.671692 
	C268.473328,258.564880 266.099030,264.191864 263.369568,269.937317 
	C263.017517,269.305603 263.020630,268.555420 263.074341,267.431458 
	C265.183014,261.806000 267.241028,256.554321 269.621765,251.138306 
z"/>
<path fill="#E4F5F4" opacity="1.000000" stroke="none" 
	d="
M313.385345,103.047234 
	C314.420807,100.174561 315.830658,97.250603 317.513184,94.119598 
	C316.443817,96.940353 315.101776,99.968147 313.385345,103.047234 
z"/>
<path fill="#35C8C2" opacity="1.000000" stroke="none" 
	d="
M343.762207,261.644104 
	C342.556793,259.265137 341.298096,256.522064 340.049927,253.386475 
	C341.276611,255.756012 342.492767,258.518005 343.762207,261.644104 
z"/>
<path fill="#E4F5F4" opacity="1.000000" stroke="none" 
	d="
M250.349701,96.945900 
	C251.491394,94.987953 252.941360,92.890846 254.739288,90.913773 
	C253.610794,92.958107 252.134384,94.882423 250.349701,96.945900 
z"/>
<path fill="#37CFCC" opacity="1.000000" stroke="none" 
	d="
M292.226105,313.337524 
	C293.753845,315.442841 295.308319,317.897491 296.907043,320.708191 
	C295.385162,318.605103 293.818970,316.145966 292.226105,313.337524 
z"/>
<path fill="#E4F5F4" opacity="1.000000" stroke="none" 
	d="
M245.187866,102.804138 
	C245.012695,101.795937 245.189346,100.844620 245.399200,99.530670 
	C246.452972,98.662613 247.473526,98.157181 248.786041,97.856140 
	C247.898560,99.660690 246.719131,101.260857 245.187866,102.804138 
z"/>
<path fill="#E4F5F4" opacity="1.000000" stroke="none" 
	d="
M261.374817,83.946404 
	C261.677917,82.627594 262.295929,81.181168 263.054932,79.402275 
	C263.549408,79.053314 263.902863,79.036827 264.516418,78.965286 
	C263.747620,80.546410 262.718658,82.182602 261.374817,83.946404 
z"/>
<path fill="#E4F5F4" opacity="1.000000" stroke="none" 
	d="
M305.389709,106.863861 
	C307.130737,105.793350 309.256989,104.797287 311.737549,103.916580 
	C309.986206,105.000732 307.880554,105.969521 305.389709,106.863861 
z"/>
<path fill="#E4F5F4" opacity="1.000000" stroke="none" 
	d="
M257.020996,86.418839 
	C257.596741,85.882607 258.076080,85.697723 258.812073,85.801117 
	C258.260956,87.333969 257.453186,88.578537 256.344971,89.951706 
	C256.337860,88.976936 256.631195,87.873558 257.020996,86.418839 
z"/>
<path fill="#E4F5F4" opacity="1.000000" stroke="none" 
	d="
M231.496704,334.045532 
	C231.793457,333.068329 232.438416,332.069122 233.466644,331.043579 
	C233.181595,332.019348 232.513260,333.021454 231.496704,334.045532 
z"/>
<path fill="#37CFCC" opacity="1.000000" stroke="none" 
	d="
M285.090332,294.383514 
	C285.149170,294.048187 285.569122,294.011200 285.779327,293.997681 
	C286.314301,295.095032 286.639038,296.205963 286.946655,297.677948 
	C286.296783,296.932312 285.664124,295.825562 285.090332,294.383514 
z"/>
<path fill="#E4F5F4" opacity="1.000000" stroke="none" 
	d="
M259.409698,86.042572 
	C259.489624,85.313919 259.923309,84.529106 260.722473,83.892990 
	C260.646484,84.689926 260.204956,85.338165 259.409698,86.042572 
z"/>
<path fill="#37CFCC" opacity="1.000000" stroke="none" 
	d="
M306.074463,332.338440 
	C306.600311,332.462494 307.216003,332.866699 307.922363,333.551331 
	C307.396790,333.427399 306.780548,333.023010 306.074463,332.338440 
z"/>
<path fill="#2FE2DB" opacity="1.000000" stroke="none" 
	d="
M255.663269,42.062500 
	C255.545273,42.588875 255.151382,43.212273 254.476700,43.927238 
	C254.593063,43.399044 254.990219,42.779285 255.663269,42.062500 
z"/>
<path fill="#37CFCC" opacity="1.000000" stroke="none" 
	d="
M301.116333,327.280121 
	C301.695465,327.473511 302.244629,327.960510 302.816376,328.736084 
	C302.254791,328.541016 301.670563,328.057404 301.116333,327.280121 
z"/>
<path fill="#37CFCC" opacity="1.000000" stroke="none" 
	d="
M297.152374,322.285217 
	C297.733063,322.477020 298.288300,322.967072 298.891113,323.746704 
	C298.334747,323.551971 297.730835,323.067749 297.152374,322.285217 
z"/>
<path fill="#37CFCC" opacity="1.000000" stroke="none" 
	d="
M290.942627,309.390320 
	C291.246338,309.828461 291.601166,310.611176 291.959229,311.730591 
	C291.639587,311.289856 291.316650,310.512421 290.942627,309.390320 
z"/>
<path fill="#34D5CF" opacity="1.000000" stroke="none" 
	d="
M290.831085,50.735466 
	C290.252716,50.525810 289.693512,50.014969 289.088165,49.205742 
	C289.644745,49.416336 290.247528,49.925312 290.831085,50.735466 
z"/>
<path fill="#34D5CF" opacity="1.000000" stroke="none" 
	d="
M288.846313,47.747524 
	C288.264221,47.548103 287.709015,47.050484 287.113464,46.258427 
	C287.673157,46.459103 288.273163,46.954216 288.846313,47.747524 
z"/>
<path fill="#37CFCC" opacity="1.000000" stroke="none" 
	d="
M298.838562,61.714844 
	C298.269989,61.509460 297.715454,61.006699 297.114929,60.210228 
	C297.663513,60.416836 298.258026,60.917149 298.838562,61.714844 
z"/>
<path fill="#35C8C2" opacity="1.000000" stroke="none" 
	d="
M306.043884,72.640869 
	C305.766998,72.476006 305.465210,72.005814 305.142273,71.251991 
	C305.420441,71.424088 305.719727,71.879814 306.043884,72.640869 
z"/>
<path fill="#31CDC6" opacity="1.000000" stroke="none" 
	d="
M390.643677,162.016495 
	C390.794830,162.429581 390.654602,162.974258 390.337219,163.741211 
	C390.224152,163.358353 390.288239,162.753235 390.643677,162.016495 
z"/>
<path fill="#2FE2DB" opacity="1.000000" stroke="none" 
	d="
M283.015137,40.571838 
	C282.730316,40.422722 282.431976,39.976891 282.112427,39.253616 
	C282.394714,39.409157 282.698181,39.842140 283.015137,40.571838 
z"/>
<path fill="#E4F5F4" opacity="1.000000" stroke="none" 
	d="
M229.605865,335.471252 
	C229.741562,334.681000 230.174210,334.018280 230.845657,333.746155 
	C230.690582,334.624084 230.296692,335.111420 229.605865,335.471252 
z"/>
<path fill="#6248B5" opacity="1.000000" stroke="none" 
	d="
M102.070038,241.341827 
	C102.401810,241.524704 102.644943,242.015259 102.912216,242.783844 
	C102.618042,242.591095 102.299721,242.120316 102.070038,241.341827 
z"/>
<path fill="#37CFCC" opacity="1.000000" stroke="none" 
	d="
M286.970551,298.357849 
	C287.251617,298.530731 287.560944,299.016815 287.906158,299.795593 
	C287.627625,299.615875 287.313232,299.143463 286.970551,298.357849 
z"/>
<path fill="#31CDC6" opacity="1.000000" stroke="none" 
	d="
M389.662506,165.019897 
	C389.760773,165.446442 389.568420,166.001190 389.157837,166.759232 
	C389.083710,166.357712 389.227783,165.752899 389.662506,165.019897 
z"/>
<path fill="#37CFCC" opacity="1.000000" stroke="none" 
	d="
M403.374023,327.471069 
	C403.477753,326.886902 403.875000,326.513092 404.546387,326.070129 
	C404.436249,326.561096 404.051910,327.121246 403.374023,327.471069 
z"/>
<path fill="#34D5CF" opacity="1.000000" stroke="none" 
	d="
M293.039307,54.597580 
	C292.752655,54.439217 292.437317,53.975708 292.095154,53.222729 
	C292.382446,53.386318 292.696564,53.839378 293.039307,54.597580 
z"/>
<path fill="#37CFCC" opacity="1.000000" stroke="none" 
	d="
M300.011169,325.301208 
	C300.236023,325.206177 300.488678,325.419708 300.827637,325.898987 
	C300.667450,325.926270 300.375793,325.741272 300.011169,325.301208 
z"/>
<path fill="#E4F5F4" opacity="1.000000" stroke="none" 
	d="
M312.273804,104.007690 
	C312.155121,103.731537 312.296204,103.364723 312.768860,103.001884 
	C312.911438,103.309586 312.722504,103.613312 312.273804,104.007690 
z"/>
<path fill="#E4F5F4" opacity="1.000000" stroke="none" 
	d="
M249.284286,98.007912 
	C249.149887,97.696426 249.270676,97.295685 249.742523,96.958969 
	C249.908905,97.321556 249.724197,97.620102 249.284286,98.007912 
z"/>
<path fill="#35C8C2" opacity="1.000000" stroke="none" 
	d="
M234.660156,70.014099 
	C234.700928,70.200943 234.464722,70.497116 233.990707,70.965744 
	C233.962997,70.799950 234.173080,70.461685 234.660156,70.014099 
z"/>
<path fill="#34D5CF" opacity="1.000000" stroke="none" 
	d="
M286.987793,45.692154 
	C286.795990,45.738235 286.542328,45.525253 286.170593,45.092361 
	C286.343658,45.059334 286.634827,45.246212 286.987793,45.692154 
z"/>
<path fill="#2FE2DB" opacity="1.000000" stroke="none" 
	d="
M467.955750,112.701477 
	C467.727905,112.801643 467.487762,112.599266 467.175446,112.137619 
	C467.337128,112.106697 467.617188,112.280220 467.955750,112.701477 
z"/>
<path fill="#2FE2DB" opacity="1.000000" stroke="none" 
	d="
M281.000061,37.697456 
	C280.790771,37.851620 280.538269,37.699898 280.164642,37.333427 
	C280.316010,37.262798 280.620453,37.353756 281.000061,37.697456 
z"/>
<path fill="#E4F5F4" opacity="1.000000" stroke="none" 
	d="
M384.286987,343.031616 
	C384.165344,342.811096 384.281982,342.511139 384.687134,342.164246 
	C384.825531,342.395599 384.675385,342.673889 384.286987,343.031616 
z"/>
<path fill="#E4F5F4" opacity="1.000000" stroke="none" 
	d="
M255.272766,91.003128 
	C255.149521,90.704727 255.281662,90.315315 255.753830,89.971977 
	C255.905289,90.316071 255.716736,90.614090 255.272766,91.003128 
z"/>
<path fill="#765ACD" opacity="1.000000" stroke="none" 
	d="
M300.127075,167.017990 
	C296.413422,177.525955 292.819397,188.078110 288.958771,198.531799 
	C282.807556,215.187836 276.478821,231.778305 270.053864,248.724152 
	C263.300171,231.703110 256.683350,214.367371 250.150284,197.000107 
	C247.000366,188.626450 244.008209,180.193436 241.285126,171.407410 
	C242.787781,171.525497 244.510208,171.702805 245.011581,172.578903 
	C246.840393,175.774445 248.217407,179.224991 249.847473,182.538696 
	C251.882156,186.674911 253.998688,190.770844 256.024750,194.775269 
	C262.673126,192.953415 268.494019,191.358322 274.431824,189.731186 
	C276.197113,182.373795 277.669464,181.138626 285.307739,180.803009 
	C289.035736,180.639206 293.933289,176.226639 293.952301,172.618896 
	C293.975037,168.300888 295.906097,166.502014 300.127075,167.017990 
z"/>
<path fill="#7155C7" opacity="1.000000" stroke="none" 
	d="
M300.351807,166.726227 
	C295.906097,166.502014 293.975037,168.300888 293.952301,172.618896 
	C293.933289,176.226639 289.035736,180.639206 285.307739,180.803009 
	C277.669464,181.138626 276.197113,182.373795 274.431824,189.731186 
	C268.494019,191.358322 262.673126,192.953415 256.024750,194.775269 
	C253.998688,190.770844 251.882156,186.674911 249.847473,182.538696 
	C248.217407,179.224991 246.840393,175.774445 245.011581,172.578903 
	C244.510208,171.702805 242.787781,171.525497 241.218292,171.026947 
	C239.237549,166.287903 237.664169,161.549454 236.129349,156.412445 
	C238.079636,157.606934 240.339508,158.929703 241.829956,160.849747 
	C244.846466,164.735657 247.628616,168.835663 250.161911,173.054825 
	C252.369766,176.731949 260.681732,179.889252 265.198883,178.336166 
	C271.578522,176.142654 278.017426,174.098343 284.292053,171.636169 
	C286.224579,170.877853 287.797028,169.060883 289.371429,167.557922 
	C293.703064,163.422806 297.948303,159.197205 302.587158,154.965805 
	C302.156525,158.760971 301.366516,162.597717 300.351807,166.726227 
z"/>
<path fill="#47308C" opacity="1.000000" stroke="none" 
	d="
M181.750610,329.685608 
	C182.048141,329.744659 182.227173,329.913696 182.406219,330.082764 
	C182.304474,330.176788 182.202728,330.270813 182.100983,330.364838 
	C181.944687,330.175110 181.788406,329.985382 181.750610,329.685608 
z"/>
</svg>